HIERARCHY
ROOT Root
{
  OFFSET 0.0 0.0 0.0
  CHANNELS 6 Xposition Yposition Zposition Zrotation Yrotation Xrotation
  JOINT Hips
  {
    OFFSET 0.0 100.0 0.0
    CHANNELS 6 Xposition Yposition Zposition Zrotation Yrotation Xrotation
    JOINT Spine1
    {
      OFFSET 5.003913 -0.037094 -0.013727
      CHANNELS 3 Zrotation Yrotation Xrotation
      JOINT Spine2
      {
        OFFSET 7.125363 -1e-06 0.0
        CHANNELS 3 Zrotation Yrotation Xrotation
        JOINT Chest
        {
          OFFSET 7.594027 1e-06 0.0
          CHANNELS 3 Zrotation Yrotation Xrotation
          JOINT Neck1
          {
            OFFSET 26.313086 -0.460272 -0.181672
            CHANNELS 3 Zrotation Yrotation Xrotation
            JOINT Neck2
            {
              OFFSET 8.045911 0.0 0.0
              CHANNELS 3 Zrotation Yrotation Xrotation
              JOINT Head
              {
                OFFSET 6.432774 0.0 0.0
                CHANNELS 3 Zrotation Yrotation Xrotation
                JOINT HeadEnd
                {
                  OFFSET 16.169773 0.06451 0.00362
                  CHANNELS 3 Zrotation Yrotation Xrotation
                }
                JOINT Jaw
                {
                  OFFSET 0.108741 3.12938 0.002639
                  CHANNELS 3 Zrotation Yrotation Xrotation
                }
                JOINT LeftEye
                {
                  OFFSET 4.45173 8.166359 3.206392
                  CHANNELS 3 Zrotation Yrotation Xrotation
                }
                JOINT RightEye
                {
                  OFFSET 4.436895 8.135758 -3.222429
                  CHANNELS 3 Zrotation Yrotation Xrotation
                }
              }
            }
          }
          JOINT LeftShoulder
          {
            OFFSET 23.218927 5.195579 1.621656
            CHANNELS 3 Zrotation Yrotation Xrotation
            JOINT LeftArm
            {
              OFFSET 15.902118 2e-06 -2e-06
              CHANNELS 3 Zrotation Yrotation Xrotation
              JOINT LeftForeArm
              {
                OFFSET 28.739307 0.0 -1e-06
                CHANNELS 3 Zrotation Yrotation Xrotation
                JOINT LeftHand
                {
                  OFFSET 27.093981 -4e-06 0.0
                  CHANNELS 3 Zrotation Yrotation Xrotation
                  JOINT LeftHandThumb1
                  {
                    OFFSET 2.276781 3.380274 0.83384
                    CHANNELS 3 Zrotation Yrotation Xrotation
                    JOINT LeftHandThumb2
                    {
                      OFFSET 4.705309 -1e-06 -1e-06
                      CHANNELS 3 Zrotation Yrotation Xrotation
                      JOINT LeftHandThumb3
                      {
                        OFFSET 2.798515 0.0 3e-06
                        CHANNELS 3 Zrotation Yrotation Xrotation
                        JOINT LeftHandThumbEnd
                        {
                          OFFSET 3.180793 4e-06 -4e-06
                          CHANNELS 3 Zrotation Yrotation Xrotation
                        }
                      }
                    }
                  }
                  JOINT LeftHandIndex1
                  {
                    OFFSET 3.247786 2.352677 0.137192
                    CHANNELS 3 Zrotation Yrotation Xrotation
                    JOINT LeftHandIndex2
                    {
                      OFFSET 6.367095 1e-06 0.0
                      CHANNELS 3 Zrotation Yrotation Xrotation
                      JOINT LeftHandIndex3
                      {
                        OFFSET 3.662364 0.0 0.0
                        CHANNELS 3 Zrotation Yrotation Xrotation
                        JOINT LeftHandIndex4
                        {
                          OFFSET 2.329242 4e-06 -4e-06
                          CHANNELS 3 Zrotation Yrotation Xrotation
                          JOINT LeftHandIndexEnd
                          {
                            OFFSET 2.767823 1e-06 0.0
                            CHANNELS 3 Zrotation Yrotation Xrotation
                          }
                        }
                      }
                    }
                  }
                  JOINT LeftHandMiddle1
                  {
                    OFFSET 3.163612 0.945023 -0.406112
                    CHANNELS 3 Zrotation Yrotation Xrotation
                    JOINT LeftHandMiddle2
                    {
                      OFFSET 6.276789 3e-06 0.0
                      CHANNELS 3 Zrotation Yrotation Xrotation
                      JOINT LeftHandMiddle3
                      {
                        OFFSET 4.35652 -1e-06 4e-06
                        CHANNELS 3 Zrotation Yrotation Xrotation
                        JOINT LeftHandMiddle4
                        {
                          OFFSET 2.996877 0.0 8e-06
                          CHANNELS 3 Zrotation Yrotation Xrotation
                          JOINT LeftHandMiddleEnd
                          {
                            OFFSET 2.323256 3e-06 -4e-06
                            CHANNELS 3 Zrotation Yrotation Xrotation
                          }
                        }
                      }
                    }
                  }
                  JOINT LeftHandRing1
                  {
                    OFFSET 2.882606 -0.309162 0.107445
                    CHANNELS 3 Zrotation Yrotation Xrotation
                    JOINT LeftHandRing2
                    {
                      OFFSET 6.033198 0.0 4e-06
                      CHANNELS 3 Zrotation Yrotation Xrotation
                      JOINT LeftHandRing3
                      {
                        OFFSET 4.350578 3e-06 0.0
                        CHANNELS 3 Zrotation Yrotation Xrotation
                        JOINT LeftHandRing4
                        {
                          OFFSET 2.651321 2e-06 -7e-06
                          CHANNELS 3 Zrotation Yrotation Xrotation
                          JOINT LeftHandRingEnd
                          {
                            OFFSET 1.937663 1e-06 -4e-06
                            CHANNELS 3 Zrotation Yrotation Xrotation
                          }
                        }
                      }
                    }
                  }
                  JOINT LeftHandPinky1
                  {
                    OFFSET 2.865315 -1.525436 0.575687
                    CHANNELS 3 Zrotation Yrotation Xrotation
                    JOINT LeftHandPinky2
                    {
                      OFFSET 5.54936 1e-06 -8e-06
                      CHANNELS 3 Zrotation Yrotation Xrotation
                      JOINT LeftHandPinky3
                      {
                        OFFSET 3.070974 0.0 -4e-06
                        CHANNELS 3 Zrotation Yrotation Xrotation
                        JOINT LeftHandPinky4
                        {
                          OFFSET 1.549672 1e-06 0.0
                          CHANNELS 3 Zrotation Yrotation Xrotation
                          JOINT LeftHandPinkyEnd
                          {
                            OFFSET 1.952123 0.0 0.0
                            CHANNELS 3 Zrotation Yrotation Xrotation
                          }
                        }
                      }
                    }
                  }
                }
              }
            }
          }
          JOINT RightShoulder
          {
            OFFSET 23.161716 5.296122 -1.380114
            CHANNELS 3 Zrotation Yrotation Xrotation
            JOINT RightArm
            {
              OFFSET -16.027195 -2e-06 1.1e-05
              CHANNELS 3 Zrotation Yrotation Xrotation
              JOINT RightForeArm
              {
                OFFSET -28.736639 4e-06 2e-06
                CHANNELS 3 Zrotation Yrotation Xrotation
                JOINT RightHand
                {
                  OFFSET -27.133619 6e-06 0.0
                  CHANNELS 3 Zrotation Yrotation Xrotation
                  JOINT RightHandThumb1
                  {
                    OFFSET -2.274328 -3.351035 -0.83067
                    CHANNELS 3 Zrotation Yrotation Xrotation
                    JOINT RightHandThumb2
                    {
                      OFFSET -4.703594 -3e-06 2e-06
                      CHANNELS 3 Zrotation Yrotation Xrotation
                      JOINT RightHandThumb3
                      {
                        OFFSET -2.794935 -4e-06 -3e-06
                        CHANNELS 3 Zrotation Yrotation Xrotation
                        JOINT RightHandThumbEnd
                        {
                          OFFSET -3.183852 4e-06 1e-06
                          CHANNELS 3 Zrotation Yrotation Xrotation
                        }
                      }
                    }
                  }
                  JOINT RightHandIndex1
                  {
                    OFFSET -3.253496 -2.33755 -0.127667
                    CHANNELS 3 Zrotation Yrotation Xrotation
                    JOINT RightHandIndex2
                    {
                      OFFSET -6.344434 0.0 0.0
                      CHANNELS 3 Zrotation Yrotation Xrotation
                      JOINT RightHandIndex3
                      {
                        OFFSET -3.654871 0.0 -8e-06
                        CHANNELS 3 Zrotation Yrotation Xrotation
                        JOINT RightHandIndex4
                        {
                          OFFSET -2.327586 -1e-06 0.0
                          CHANNELS 3 Zrotation Yrotation Xrotation
                          JOINT RightHandIndexEnd
                          {
                            OFFSET -2.770001 3e-06 8e-06
                            CHANNELS 3 Zrotation Yrotation Xrotation
                          }
                        }
                      }
                    }
                  }
                  JOINT RightHandMiddle1
                  {
                    OFFSET -3.168223 -0.944764 0.411762
                    CHANNELS 3 Zrotation Yrotation Xrotation
                    JOINT RightHandMiddle2
                    {
                      OFFSET -6.266691 -1e-06 -4e-06
                      CHANNELS 3 Zrotation Yrotation Xrotation
                      JOINT RightHandMiddle3
                      {
                        OFFSET -4.348901 0.0 0.0
                        CHANNELS 3 Zrotation Yrotation Xrotation
                        JOINT RightHandMiddle4
                        {
                          OFFSET -3.00024 2e-06 -4e-06
                          CHANNELS 3 Zrotation Yrotation Xrotation
                          JOINT RightHandMiddleEnd
                          {
                            OFFSET -2.321477 -4e-06 -4e-06
                            CHANNELS 3 Zrotation Yrotation Xrotation
                          }
                        }
                      }
                    }
                  }
                  JOINT RightHandRing1
                  {
                    OFFSET -2.885654 0.293261 -0.119232
                    CHANNELS 3 Zrotation Yrotation Xrotation
                    JOINT RightHandRing2
                    {
                      OFFSET -6.032835 -1e-06 -4e-06
                      CHANNELS 3 Zrotation Yrotation Xrotation
                      JOINT RightHandRing3
                      {
                        OFFSET -4.33881 0.0 -4e-06
                        CHANNELS 3 Zrotation Yrotation Xrotation
                        JOINT RightHandRing4
                        {
                          OFFSET -2.654903 -4e-06 -4e-06
                          CHANNELS 3 Zrotation Yrotation Xrotation
                          JOINT RightHandRingEnd
                          {
                            OFFSET -1.935122 0.0 4e-06
                            CHANNELS 3 Zrotation Yrotation Xrotation
                          }
                        }
                      }
                    }
                  }
                  JOINT RightHandPinky1
                  {
                    OFFSET -2.866241 1.503904 -0.60527
                    CHANNELS 3 Zrotation Yrotation Xrotation
                    JOINT RightHandPinky2
                    {
                      OFFSET -5.553177 -2e-06 0.0
                      CHANNELS 3 Zrotation Yrotation Xrotation
                      JOINT RightHandPinky3
                      {
                        OFFSET -3.062664 -1e-06 -4e-06
                        CHANNELS 3 Zrotation Yrotation Xrotation
                        JOINT RightHandPinky4
                        {
                          OFFSET -1.546529 2e-06 4e-06
                          CHANNELS 3 Zrotation Yrotation Xrotation
                          JOINT RightHandPinkyEnd
                          {
                            OFFSET -1.952341 0.0 -4e-06
                            CHANNELS 3 Zrotation Yrotation Xrotation
                          }
                        }
                      }
                    }
                  }
                }
              }
            }
          }
        }
      }
    }
    JOINT LeftLeg
    {
      OFFSET -8.443107 2.567604 10.043214
      CHANNELS 3 Zrotation Yrotation Xrotation
      JOINT LeftShin
      {
        OFFSET 43.229198 1e-06 -1e-06
        CHANNELS 3 Zrotation Yrotation Xrotation
        JOINT LeftFoot
        {
          OFFSET 42.298611 1e-06 1e-06
          CHANNELS 3 Zrotation Yrotation Xrotation
          JOINT LeftToeBase
          {
            OFFSET 14.165858 1e-06 0.0
            CHANNELS 3 Zrotation Yrotation Xrotation
            JOINT LeftToeEnd
            {
              OFFSET 6.7141 -0.234461 0.0
              CHANNELS 3 Zrotation Yrotation Xrotation
            }
          }
        }
      }
    }
    JOINT RightLeg
    {
      OFFSET -8.303923 2.592729 -10.047278
      CHANNELS 3 Zrotation Yrotation Xrotation
      JOINT RightShin
      {
        OFFSET -43.369682 0.0 1e-06
        CHANNELS 3 Zrotation Yrotation Xrotation
        JOINT RightFoot
        {
          OFFSET -42.260784 4e-06 2e-06
          CHANNELS 3 Zrotation Yrotation Xrotation
          JOINT RightToeBase
          {
            OFFSET -14.222245 -2e-06 -1e-06
            CHANNELS 3 Zrotation Yrotation Xrotation
            JOINT RightToeEnd
            {
              OFFSET -6.660062 0.232574 -2e-06
              CHANNELS 3 Zrotation Yrotation Xrotation
            }
          }
        }
      }
    }
  }
}
MOTION
Frames: 5
Frame Time: 0.03333333333333333
0.0 0.0 0.0 0.0 -0.0 0.0 2.066451 49.340351 3.334011 91.458809 -56.065639 88.356461 14.832138 -1.454922 0.188807 -3.959265 -0.699702 0.280193 19.72711 -2.939823 -1.966749 15.157322 -1.73989 3.611197 -2.74818 -0.167866 3.180046 -30.620445 -2.731379 4.459761 7e-06 -1e-06 -0.0 -0.177385 0.108436 0.015541 0.064175 0.154645 0.069163 0.064717 0.061213 -0.036982 -22.987049 -64.77562 23.958479 90.237305 -1.402573 -30.762325 7.482154 -2.063891 -0.182242 37.858974 83.418709 35.192692 17.636633 -26.322733 52.411201 -19.466665 -14.395598 29.410389 -0.0 -8.774822 -2e-06 14.974236 -18.198269 6.667838 -0.609776 -1.795654 -3.889329 -4.807088 -11.04681 -2.93785 3e-06 -20.976021 0.0 -5.01997 -25.03356 -4.031883 6e-06 1e-06 1e-06 -10.634535 -5.686972 -3.565588 10.573275 -17.922951 -3.113901 3e-06 -13.821213 1e-06 -0.501777 -31.181505 -4.027016 -10.573088 -57.851349 6.110916 -13.982716 -7.150198 -2.875042 13.772733 -8.401493 -3.218241 0.347734 -34.211555 0.771654 -0.963028 -17.733372 2.621021 -0.0 -2e-06 -1e-06 -17.346422 -20.095221 -4.201783 21.757561 -1.638374 3.866428 1e-06 -6.338825 1e-06 -1.69759 -22.591747 -6.194006 1e-06 -4e-06 -2e-06 154.289734 -60.943859 26.758869 94.317574 4.627247 -18.355062 6.275688 -1.87027 -0.184901 -29.768267 61.632122 -36.26828 22.182116 -20.3759 49.933327 -16.70182 -16.743536 28.476542 -2e-06 -12.690605 0.0 16.414394 -17.495901 2.600073 -0.105919 -1.513858 -4.275882 -5.039042 -5.612875 -2.953557 5e-06 -11.020528 -2e-06 -6.111298 -15.895338 -3.840472 -0.0 -0.0 0.0 -10.283373 -5.68029 -4.341838 11.028297 -11.302411 -2.372635 -1.384268 -14.238585 -6.320122 -0.625437 -26.924198 -3.827604 -4.596946 -49.346313 -3.335171 -13.708526 -7.363479 -3.720938 18.141155 -14.05274 -3.242678 6e-06 -18.787277 -3e-06 -0.429712 -8.456047 2.555504 -0.0 1e-06 0.0 -15.923536 -20.09449 -5.473586 30.419222 -7.190828 1.735923 2e-06 -8.162927 -1e-06 -1.861902 -22.861479 -6.167943 -1e-06 -4e-06 -1e-06 117.809601 -3.380135 -9.107298 111.995018 0.963518 0.490317 -53.668179 1.565765 -10.692906 -10.435198 1.626961 2.682781 -1.0 0.0 0.0 -58.742489 -9.048402 5.283693 109.884964 -0.906782 0.289626 -66.66787 9.024361 2.659825 -11.043432 0.730545 1.675954 -1.000001 0.0 0.0 
0.0 0.0 0.0 0.0 -0.0 0.0 2.168497 49.334164 3.309298 91.10025 -56.089878 88.625595 14.77283 -1.354093 0.217755 -4.023086 -0.672833 0.346574 19.792004 -2.958177 -1.869355 15.078938 -1.873262 3.52513 -2.744364 -0.182312 3.171632 -30.641121 -2.72346 4.488688 6e-06 -1e-06 -0.0 -0.177122 0.084291 0.024004 0.093634 0.125955 0.075873 0.094529 0.043186 -0.029068 -22.937237 -64.9925 24.227121 90.49868 -1.136847 -31.135206 7.171704 -2.069831 -0.167508 43.874958 83.016487 40.895321 17.636637 -26.322742 52.411209 -19.46666 -14.395597 29.410395 0.0 -8.774821 -2e-06 14.907431 -18.288572 6.712519 -0.609777 -1.795654 -3.889329 -4.80709 -11.046814 -2.93785 2e-06 -20.976023 2e-06 -5.019973 -25.033564 -4.031881 6e-06 1e-06 1e-06 -10.634537 -5.686973 -3.565589 10.573275 -17.922955 -3.1139 2e-06 -13.821214 1e-06 -0.50178 -31.181519 -4.027015 -10.504563 -58.073574 6.161922 -13.982716 -7.1502 -2.875043 13.772733 -8.401497 -3.218241 0.347732 -34.211559 0.771656 -0.96303 -17.733376 2.621021 -0.0 -1e-06 -1e-06 -17.346424 -20.095224 -4.201782 21.757563 -1.638375 3.866431 1e-06 -6.338827 1e-06 -1.697591 -22.591751 -6.194007 -0.0 -4e-06 -1e-06 154.406891 -60.800869 26.844141 94.156273 4.720634 -18.849712 6.127209 -1.8202 -0.185833 -28.763205 61.704742 -35.653378 22.182121 -20.375898 49.933319 -16.701809 -16.743523 28.476522 -1e-06 -12.6906 -2e-06 16.330935 -17.487263 2.650781 -0.10592 -1.513856 -4.275882 -5.039041 -5.612873 -2.953556 4e-06 -11.020525 -1e-06 -6.111297 -15.895334 -3.840469 -1e-06 -0.0 -0.0 -10.283371 -5.68029 -4.341839 11.028293 -11.302406 -2.372631 -1.384269 -14.238583 -6.320121 -0.62544 -26.924194 -3.827599 -4.532956 -49.518719 -3.297967 -13.708524 -7.363477 -3.720941 18.141148 -14.052739 -3.242671 5e-06 -18.787275 -2e-06 -0.429711 -8.456045 2.555504 0.0 1e-06 -0.0 -15.923536 -20.094484 -5.473584 30.41921 -7.190824 1.735929 3e-06 -8.162927 -1e-06 -1.861902 -22.861473 -6.167942 0.0 -3e-06 -1e-06 117.726959 -3.44963 -9.044314 112.079872 0.934485 0.491304 -53.721622 1.309261 -10.45721 -10.354789 1.660572 2.671353 -0.999998 -0.0 -0.0 -58.756615 -8.946754 5.253495 109.823395 -0.855171 0.279298 -66.464386 8.761305 2.852107 -10.911759 0.711379 1.697184 -1.000001 -0.0 0.0 
0.0 0.0 0.0 0.0 -0.0 0.0 2.254666 49.324596 3.344774 90.883217 -56.06176 88.676521 14.737097 -1.283477 0.321049 -4.072584 -0.615998 0.406232 19.84866 -3.137039 -1.80825 15.06704 -1.950808 3.470933 -2.79095 -0.170106 3.063343 -30.695232 -2.677786 4.508299 5e-06 -1e-06 1e-06 -0.173257 0.018292 0.040228 0.076484 0.050605 0.08192 0.085652 -0.013758 -0.005259 -22.57892 -65.025719 23.9785 90.58667 -1.190279 -31.217222 7.103174 -2.054885 -0.174722 46.029472 82.7229 42.866951 17.63662 -26.322721 52.411182 -19.46666 -14.395596 29.410385 -1e-06 -8.774818 -1e-06 14.90001 -18.211939 6.655123 -0.609775 -1.795654 -3.889327 -4.807087 -11.046811 -2.93785 3e-06 -20.976021 2e-06 -5.019969 -25.03356 -4.031881 7e-06 1e-06 1e-06 -10.634529 -5.68697 -3.565587 10.573271 -17.922951 -3.113901 2e-06 -13.821211 0.0 -0.501778 -31.181505 -4.027015 -10.186213 -58.063396 5.981324 -13.982709 -7.150198 -2.875041 13.772727 -8.401491 -3.218242 0.347733 -34.211559 0.771653 -0.963028 -17.73337 2.621018 -0.0 -1e-06 -1e-06 -17.346411 -20.095215 -4.201779 21.757553 -1.638374 3.866426 1e-06 -6.338824 0.0 -1.697588 -22.591742 -6.194005 -0.0 -4e-06 -2e-06 154.624634 -60.842472 26.795031 93.856995 4.714239 -18.688076 6.139195 -1.787341 -0.181422 -28.827179 61.60173 -35.725616 22.182106 -20.375889 49.933319 -16.701817 -16.74353 28.476534 -2e-06 -12.690601 1e-06 16.088778 -17.365294 2.697655 -0.105919 -1.513855 -4.275881 -5.039041 -5.612873 -2.953557 4e-06 -11.020523 -3e-06 -6.111296 -15.895334 -3.840471 0.0 -0.0 -0.0 -10.283369 -5.680288 -4.341838 11.028294 -11.302402 -2.372633 -1.384269 -14.238579 -6.320122 -0.625438 -26.924187 -3.827601 -4.413208 -49.31485 -3.279749 -13.708522 -7.363476 -3.720939 18.14115 -14.052735 -3.242676 6e-06 -18.787273 -3e-06 -0.429712 -8.456041 2.555503 -0.0 0.0 1e-06 -15.923534 -20.094482 -5.473584 30.41921 -7.190821 1.735923 2e-06 -8.162925 -1e-06 -1.861902 -22.861469 -6.167944 0.0 -3e-06 -1e-06 117.758705 -3.570868 -9.097821 111.888611 0.894937 0.582802 -52.650543 1.250879 -10.231222 -11.401623 1.733346 2.6508 -0.999999 -0.0 -1e-06 -58.692028 -8.708277 5.345752 109.65551 -0.835787 0.307023 -65.867798 8.738257 2.845818 -11.104869 0.728901 1.673805 -1.000001 -0.0 0.0 
0.0 0.0 0.0 0.0 -0.0 0.0 2.301478 49.31831 3.363095 90.596565 -56.065331 88.868179 14.664248 -1.232928 0.354994 -4.115879 -0.616603 0.492958 19.899332 -3.107172 -1.768043 15.02441 -2.079143 3.412606 -2.792257 -0.198431 3.011477 -30.889948 -2.719419 4.532539 6e-06 -1e-06 0.0 -0.175579 -0.015108 0.048695 0.036573 0.016318 0.078367 0.053016 -0.046744 0.012352 -22.366833 -65.118149 23.92956 90.700165 -1.240442 -31.38349 7.039905 -2.06401 -0.172591 48.35965 82.584999 45.204357 17.636625 -26.322727 52.411182 -19.466654 -14.395597 29.410378 -1e-06 -8.774819 -2e-06 14.936097 -18.178051 6.579278 -0.609776 -1.795654 -3.889328 -4.807087 -11.046807 -2.93785 4e-06 -20.976015 1e-06 -5.019969 -25.033552 -4.031881 7e-06 1e-06 1e-06 -10.634532 -5.686969 -3.565587 10.573274 -17.922947 -3.113899 3e-06 -13.821209 1e-06 -0.501778 -31.181501 -4.027015 -10.097936 -58.075371 5.864017 -13.982712 -7.150197 -2.875041 13.77273 -8.401491 -3.218241 0.347734 -34.211544 0.771655 -0.963028 -17.733366 2.621021 -0.0 -1e-06 -0.0 -17.346415 -20.095213 -4.201781 21.757557 -1.638374 3.866427 1e-06 -6.338823 2e-06 -1.697589 -22.59174 -6.194004 0.0 -4e-06 -0.0 154.923264 -60.903336 26.621994 93.505798 4.636138 -18.508316 6.263717 -1.734326 -0.177779 -29.07795 61.611435 -35.952152 22.182108 -20.375895 49.933323 -16.701817 -16.74353 28.476532 -2e-06 -12.6906 1e-06 16.059317 -17.307369 2.746279 -0.105919 -1.513855 -4.275882 -5.03904 -5.612873 -2.953557 5e-06 -11.020521 -3e-06 -6.111297 -15.895332 -3.84047 0.0 -0.0 0.0 -10.283369 -5.680285 -4.341838 11.028294 -11.302405 -2.372635 -1.384268 -14.238581 -6.32012 -0.625436 -26.924183 -3.827602 -4.36078 -49.346409 -3.210856 -13.708524 -7.363474 -3.72094 18.14115 -14.052738 -3.242677 6e-06 -18.78727 -3e-06 -0.429711 -8.456039 2.555503 0.0 1e-06 0.0 -15.923532 -20.094481 -5.473585 30.41921 -7.190825 1.735924 2e-06 -8.162921 -1e-06 -1.861903 -22.861464 -6.16794 0.0 -4e-06 -1e-06 117.76992 -3.68023 -9.019938 111.930435 0.88105 0.58852 -52.778713 1.182104 -10.171967 -11.651608 1.741913 2.654353 -0.999997 -1e-06 -0.0 -58.632381 -8.505277 5.33693 109.563416 -0.805084 0.315089 -65.691368 8.644511 2.770767 -11.403603 0.722771 1.673795 -1.000002 -0.0 0.0 
0.0 0.0 0.0 0.0 -0.0 0.0 2.32444 49.323093 3.348996 90.176674 -56.118336 89.269379 14.559547 -1.213808 0.319199 -4.172385 -0.653829 0.600238 19.957796 -2.867717 -1.765306 14.948777 -2.290527 3.342625 -2.745986 -0.242083 3.046418 -31.064451 -2.765779 4.532659 7e-06 -0.0 0.0 -0.181414 -0.017279 0.053775 -0.000563 0.011708 0.077209 0.027609 -0.046789 0.020719 -22.40225 -65.305763 24.264553 90.876457 -1.203493 -31.566191 6.936202 -2.047068 -0.148312 51.69532 82.612465 48.617855 17.636625 -26.322735 52.411205 -19.466661 -14.395596 29.410393 0.0 -8.774819 -0.0 14.996839 -18.263176 6.546348 -0.609775 -1.795654 -3.889328 -4.807088 -11.046811 -2.937852 3e-06 -20.976019 0.0 -5.019968 -25.03356 -4.031882 6e-06 2e-06 1e-06 -10.634533 -5.68697 -3.565587 10.573272 -17.922953 -3.113902 2e-06 -13.821213 1e-06 -0.501777 -31.181507 -4.027018 -10.331766 -58.186821 5.956997 -13.982712 -7.150198 -2.875043 13.772727 -8.401492 -3.218242 0.347733 -34.211555 0.771652 -0.963028 -17.73337 2.621019 -0.0 -1e-06 -1e-06 -17.346415 -20.095217 -4.201783 21.757555 -1.638375 3.866427 1e-06 -6.338823 0.0 -1.697589 -22.591747 -6.194007 -0.0 -4e-06 -2e-06 155.3022 -60.947895 26.384783 93.172882 4.582398 -18.634584 6.434379 -1.66546 -0.180497 -29.117899 61.780483 -35.884022 22.182104 -20.375898 49.933334 -16.70182 -16.74353 28.476542 -2e-06 -12.690601 1e-06 16.227293 -17.354855 2.818078 -0.105919 -1.513858 -4.275882 -5.03904 -5.612872 -2.953558 5e-06 -11.020526 -3e-06 -6.111295 -15.895334 -3.840472 -1e-06 -0.0 -1e-06 -10.283367 -5.680289 -4.341839 11.028294 -11.302406 -2.372636 -1.384267 -14.238581 -6.320123 -0.625434 -26.924191 -3.827605 -4.358758 -49.666496 -3.15167 -13.70852 -7.363478 -3.72094 18.141148 -14.052739 -3.242677 7e-06 -18.787271 -3e-06 -0.429711 -8.456043 2.555503 0.0 1e-06 0.0 -15.923532 -20.094484 -5.473586 30.41921 -7.190825 1.735921 2e-06 -8.162924 -1e-06 -1.8619 -22.861469 -6.167943 1e-06 -3e-06 -1e-06 117.738968 -3.809875 -8.815405 112.296661 0.88768 0.493363 -54.556522 0.93148 -10.192554 -10.95144 1.700235 2.665195 -0.999999 1e-06 -0.0 -58.606152 -8.306004 5.229539 109.548096 -0.757376 0.297945 -65.922729 8.569342 2.704335 -11.449608 0.675856 1.708916 -1.000002 0.0 0.0 
